<?xml version="1.0" standalone="no"?><!DOCTYPE svg PUBLIC "-//W3C//DTD SVG 1.1//EN" "http://www.w3.org/Graphics/SVG/1.1/DTD/svg11.dtd"><svg t="1663044545732" class="icon" viewBox="0 0 1024 1024" version="1.1" xmlns="http://www.w3.org/2000/svg" p-id="7590" xmlns:xlink="http://www.w3.org/1999/xlink" width="100" height="100"><path d="M647.786916 376.524764A191.534094 191.534094 0 1 1 512.149811 320.22257a190.595724 190.595724 0 0 1 135.637105 56.302194z" fill="#229EFC" p-id="7591"></path><path d="M512.149811 192.263037v127.959533a190.595724 190.595724 0 0 0-135.637105 56.302194l-90.638002-90.638002A319.685566 319.685566 0 0 1 512.149811 192.263037z" fill="#00E8CF" p-id="7592"></path><path d="M512.149811 21.650326v170.612711a319.685566 319.685566 0 0 0-226.275107 93.623725L165.379477 165.391535A488.144291 488.144291 0 0 1 512.149811 21.650326z" fill="#70FFEF" p-id="7593"></path><path d="M285.874704 285.886762l90.638002 90.638002A190.595724 190.595724 0 0 0 320.210512 512.161869H192.250979a319.685566 319.685566 0 0 1 93.623725-226.275107z" fill="#0064B5" p-id="7594"></path><path d="M285.874704 285.886762A319.685566 319.685566 0 0 0 192.250979 512.161869H21.638269A488.144291 488.144291 0 0 1 165.379477 165.391535z" fill="#0091FF" p-id="7595"></path><path d="M320.210512 512.161869a190.595724 190.595724 0 0 0 56.302194 135.637105l-90.638002 90.638002A319.685566 319.685566 0 0 1 192.250979 512.161869z" fill="#31C4FF" p-id="7596"></path><path d="M192.250979 512.161869a319.685566 319.685566 0 0 0 93.623725 226.275107l-120.495227 120.495227A488.144291 488.144291 0 0 1 21.638269 512.161869z" fill="#9EEBFF" p-id="7597"></path><path d="M512.149811 704.101168v127.959533a319.685566 319.685566 0 0 1-226.275107-93.623725l90.638002-90.638002A190.595724 190.595724 0 0 0 512.149811 704.101168z" fill="#5F4A9E" p-id="7598"></path><path d="M285.874704 738.436976A319.685566 319.685566 0 0 0 512.149811 832.060701v170.61271a488.144291 488.144291 0 0 1-346.770334-143.741208z" fill="#9D87E0" p-id="7599"></path><path d="M738.424918 738.436976A319.685566 319.685566 0 0 1 512.149811 832.060701v-127.959533a190.595724 190.595724 0 0 0 135.637105-56.302194z" fill="#FF468C" p-id="7600"></path><path d="M738.424918 738.436976l120.495227 120.495227A488.144291 488.144291 0 0 1 512.149811 1002.673411v-170.61271a319.685566 319.685566 0 0 0 226.275107-93.623725z" fill="#FFA1C8" p-id="7601"></path><path d="M704.08911 512.161869h127.959533a319.685566 319.685566 0 0 1-93.623725 226.275107l-90.638002-90.638002A190.595724 190.595724 0 0 0 704.08911 512.161869z" fill="#F03049" p-id="7602"></path><path d="M832.048643 512.161869h170.612711a488.144291 488.144291 0 0 1-143.741209 346.770334l-120.495227-120.495227A319.685566 319.685566 0 0 0 832.048643 512.161869z" fill="#FF636E" p-id="7603"></path><path d="M738.424918 285.886762A319.685566 319.685566 0 0 1 832.048643 512.161869h-127.959533a190.595724 190.595724 0 0 0-56.302194-135.637105z" fill="#FE8205" p-id="7604"></path><path d="M1002.661354 512.161869h-170.612711a319.685566 319.685566 0 0 0-93.623725-226.275107l120.495227-120.495227A488.144291 488.144291 0 0 1 1002.661354 512.161869z" fill="#FFA426" p-id="7605"></path><path d="M738.424918 285.886762l-90.638002 90.638002A190.595724 190.595724 0 0 0 512.149811 320.22257V192.263037a319.685566 319.685566 0 0 1 226.275107 93.623725z" fill="#FFC247" p-id="7606"></path><path d="M858.920145 165.391535l-120.495227 120.495227A319.685566 319.685566 0 0 0 512.149811 192.263037V21.650326a488.144291 488.144291 0 0 1 346.770334 143.741209z" fill="#FFFD78" p-id="7607"></path><path d="M934.757495 308.109067l38.38786-18.575459c-7.272367-14.928612-15.44045-29.857224-24.269658-44.401958l-36.383161 22.243633c8.12543 13.265138 15.525757 26.956808 22.264959 40.733784z" p-id="7608"></path><path d="M992.126019 334.020873l-39.987354 14.928612A466.071272 466.071272 0 0 1 980.396395 490.83528h-127.959533A337.983779 337.983779 0 0 0 768.068877 286.419926l90.616676-90.595349c8.99982 9.874211 17.615762 20.1323 25.741192 30.710288l33.82397-25.975785a516.231408 516.231408 0 0 0-44.146039-50.33075 511.838131 511.838131 0 0 0-798.595444 629.13437l36.340507-22.328939A468.139951 468.139951 0 0 1 43.434043 533.488458h128.151472a337.983779 337.983779 0 0 0 84.879823 204.202087L165.806009 828.349874c-9.042474-9.895537-17.829028-20.046993-25.911805-30.561001l-33.82397 25.975785a518.790599 518.790599 0 0 0 44.146039 50.330749 511.987417 511.987417 0 0 0 841.909746-540.074534zM165.635396 195.803251L256.230746 286.419926A337.983779 337.983779 0 0 0 171.884087 490.83528h-127.959533A464.919636 464.919636 0 0 1 165.635396 195.803251z m467.158928 437.003131A170.61271 170.61271 0 1 1 682.762522 512.161869a169.503728 169.503728 0 0 1-49.968198 120.644513z m-285.77629-255.620494A211.133229 211.133229 0 0 0 300.035559 490.83528h-85.412988a295.543868 295.543868 0 0 1 72.062543-173.982311z m300.107758-30.177123A211.133229 211.133229 0 0 0 533.4764 300.047617v-85.412989a295.543868 295.543868 0 0 1 173.982311 72.062544zM490.823222 299.940984a211.133229 211.133229 0 0 0-113.585412 47.153087l-60.396899-60.396899A295.543868 295.543868 0 0 1 490.823222 214.634628zM299.928926 533.488458a211.133229 211.133229 0 0 0 47.153088 113.585412l-60.3969 60.396899A295.543868 295.543868 0 0 1 214.622571 533.488458z m77.244905 143.826514A211.133229 211.133229 0 0 0 490.823222 724.276121v85.412988a295.543868 295.543868 0 0 1-173.982311-72.062543zM533.4764 724.382754a211.133229 211.133229 0 0 0 113.585412-47.153088l60.396899 60.3969A295.543868 295.543868 0 0 1 533.4764 809.689109z m204.138108-16.911985l-60.33292-60.33292A211.133229 211.133229 0 0 0 724.264063 533.488458h85.412989a295.543868 295.543868 0 0 1-72.062544 173.982311zM809.677052 490.83528h-85.306356a211.133229 211.133229 0 0 0-47.153087-113.585412l60.396899-60.396899A295.543868 295.543868 0 0 1 809.677052 490.83528zM533.4764 43.4461a465.282188 465.282188 0 0 1 294.669477 122.563906l-90.467389 90.46739A338.197045 338.197045 0 0 0 533.4764 171.576246z m-42.653178 0.511838v127.959533A338.175719 338.175719 0 0 0 286.407869 256.242803L195.791193 165.647454A464.919636 464.919636 0 0 1 490.823222 43.957938zM286.407869 768.080934A338.175719 338.175719 0 0 0 490.823222 852.427593v127.959533a465.175555 465.175555 0 0 1-295.032029-121.710842zM533.4764 980.877637V852.747492A338.410311 338.410311 0 0 0 737.891754 768.080934l90.616675 90.616676A465.602087 465.602087 0 0 1 533.4764 980.877637z m324.825274-152.719702l-90.46739-90.46739A337.983779 337.983779 0 0 0 852.714108 533.488458h128.151472a465.111575 465.111575 0 0 1-122.563906 294.669477z" p-id="7609" data-spm-anchor-id="a313x.7781069.0.i5" class="selected"></path><text x="360" y="540" style="font-family: '微软雅黑'; font-size: 80px; fill:white; font-weight:bold; ">jobpool</text></svg>